<?xml version="1.0" encoding="utf-8"?>
<!-- Generator: Adobe Illustrator 24.0.2, SVG Export Plug-In . SVG Version: 6.00 Build 0)  -->
<svg version="1.1" id="Layer_1" xmlns="http://www.w3.org/2000/svg" xmlns:xlink="http://www.w3.org/1999/xlink" x="0px" y="0px"
	 viewBox="0 0 92.3 66.4" style="enable-background:new 0 0 92.3 66.4;" xml:space="preserve">
<title>Artboard 1</title>
<path d="M34.1,56.2c-3.9,1.9-8.3,2.9-12.6,2.8C9,59,0.7,49.9,0.7,37c0-13.8,9.4-23.1,22.3-23.1c5.3,0,9.7,1.5,11.3,2.7l-1.5,3.5
	c-3.1-1.7-6.7-2.6-10.3-2.5C11,17.6,5,26.4,5,36.6c0,11.3,7.1,18.7,17.1,18.7c3.7,0,7.4-0.8,10.8-2.5L34.1,56.2z"/>
<path d="M47.2,1.1h1.7V65h-1.7V1.1z"/>
<path d="M82.5,5.4V18h9.9v10.1h-9.9v16c0,5.3,1.3,7.8,5.4,7.8c1.4,0,2.7-0.1,4.1-0.4L92,61.8c-2.9,0.9-5.9,1.2-8.9,1.2
	c-4.4,0-8.1-1.5-10.3-3.8c-2.6-2.6-3.8-6.8-3.8-13.1v-18h-5.8V18h5.8V8.5L82.5,5.4z"/>
</svg>
