<svg id="Layer_1" data-name="Layer 1" xmlns="http://www.w3.org/2000/svg" viewBox="0 0 231.19 68.63"><title>Artboard 1</title><path d="M38.27,64.28a28.46,28.46,0,0,1-12.63,2.81C13.2,67.09,4.9,58,4.9,45.09,4.9,31.34,14.26,22,27.17,22c5.31,0,9.66,1.5,11.34,2.67L37,28.19a20.06,20.06,0,0,0-10.25-2.52c-11.59,0-17.53,8.86-17.53,19,0,11.32,7.13,18.7,17.08,18.7a24.37,24.37,0,0,0,10.8-2.5Z"/><path d="M49.09,44.14c0,13.79,7.52,19.26,16.43,19.26,6.29,0,9.56-1.26,12-2.45l1.1,3.37c-1.66.9-6.09,2.77-13.63,2.77-12.42,0-20.14-9-20.14-21.69C44.85,31,53.11,22,64.27,22,78.42,22,81.1,35.25,81.1,41.48a13.9,13.9,0,0,1-.1,2.66Zm27.54-3.42c.11-6-2.41-15.21-12.91-15.21-9.5,0-13.62,8.55-14.4,15.21Z"/><path d="M92.09,2.25h4.27V66.14H92.09Z"/><path d="M124.65,9.53V22.09h9.86v10.1h-9.86v16c0,5.32,1.32,7.77,5.4,7.77a18,18,0,0,0,4.07-.41l.11,10.4a28.94,28.94,0,0,1-8.87,1.18c-4.43,0-8.12-1.54-10.32-3.82-2.55-2.61-3.79-6.8-3.79-13.06v-18H105.4V22.09h5.85V12.63Z"/><path d="M183.89,52c0,5.73.17,10.46.36,14.12H172.37l-.63-6.21h-.28a15.63,15.63,0,0,1-13.73,7.2c-8.95,0-15.47-5.59-15.47-19.14V22.09H156V45.77c0,6.44,2.07,10.3,6.9,10.3a7.31,7.31,0,0,0,6.81-4.82,7.54,7.54,0,0,0,.5-2.9V22.09h13.71Z"/><path d="M227.93,65c-2.47,1.14-7.06,2-12.27,2-14.24,0-23.3-8.71-23.3-22.55,0-12.87,8.81-23.4,25.18-23.4A31.58,31.58,0,0,1,228,22.87L225.86,33a18.29,18.29,0,0,0-7.66-1.4c-7.24,0-11.89,5.14-11.83,12.34,0,8.09,5.43,12.38,12,12.38a20.29,20.29,0,0,0,7.89-1.43Z"/></svg>