<?xml version="1.0" encoding="utf-8"?>
<!-- Generator: Adobe Illustrator 25.0.0, SVG Export Plug-In . SVG Version: 6.00 Build 0)  -->
<svg version="1.1" id="Layer_1" xmlns="http://www.w3.org/2000/svg" xmlns:xlink="http://www.w3.org/1999/xlink" x="0px" y="0px"
	 viewBox="0 0 549.6 561.2" style="enable-background:new 0 0 549.6 561.2;" xml:space="preserve">
<style type="text/css">
	.st0{fill:url(#SVGID_1_);}
	.st1{fill:url(#SVGID_2_);}
	.st2{fill:url(#SVGID_3_);}
</style>
<g>
	
		<linearGradient id="SVGID_1_" gradientUnits="userSpaceOnUse" x1="184.4001" y1="522.8756" x2="388.5505" y2="297.8452" gradientTransform="matrix(1 0 0 -1 0 564)">
		<stop  offset="0" style="stop-color:#28ABC9"/>
		<stop  offset="1" style="stop-color:#00699B"/>
	</linearGradient>
	<path class="st0" d="M515.3,53.3c-30.9-17.4-63.1-31.5-97.4-40.4c-17.7-4.6-35.9-7.7-54.1-9.2c-57.5-4.5-111.3,7.7-161.8,35.2
		c-36.8,20-68.7,46.2-97.3,76.6C75,147,50,181.9,28,219c-0.4,0.6-1.2,1.2-0.7,2.4c1.5-0.2,2.8-1.1,4.1-1.8c18-9,38.2-12.9,58.3-11.2
		c16.2,1.2,31.7,5.6,46.8,11.3c19.4,7.3,37.9,16.6,56.6,25.5c17.4,8.3,35,16.3,53.4,22.3c20.5,6.8,42.2,9.4,63.8,7.7
		c34-2.5,65.4-13.3,94.5-30.8c43.1-26,76.3-61.1,97.6-107c11.3-24,17.2-50.3,17.1-76.9C519.5,57,518.4,55,515.3,53.3z"/>
	
		<linearGradient id="SVGID_2_" gradientUnits="userSpaceOnUse" x1="-2.278484e-03" y1="172.4173" x2="302.17" y2="172.4173" gradientTransform="matrix(1 0 0 -1 0 564)">
		<stop  offset="0" style="stop-color:#28ABC9"/>
		<stop  offset="1" style="stop-color:#00699B"/>
	</linearGradient>
	<path class="st1" d="M302.2,537.3c-7.6-3.9-15-7.5-22.4-11.3c-21.5-11.3-42-24.1-60.7-39.8c-15.6-13.1-29.4-27.6-39.3-45.6
		c-6.6-12-10.7-24.6-11-38.4c-0.2-13.4,3.5-26.6,10.6-37.9c8.1-13.3,19.2-23.7,31.8-32.5c17-11.9,35.8-20.2,55.3-27
		c0.9-0.3,1.9-0.6,2.8-1c0.4-0.2,0.7-0.5,1.1-0.8c-4.7-1.4-9-2.9-13.4-3.9c-20.6-4.7-40.1-12.4-59.2-21.1
		c-19-8.6-37.5-18.4-56.7-26.6c-13-5.6-26.3-10.4-40.2-13.4c-21.4-4.5-41.8-2.1-61,8.4c-7.4,4-14.7,8.2-22.1,12.1
		c-1.6,0.8-2.8,2.3-3.4,4c-7.4,20.4-12.4,41.3-14,63c-3.7,53,11,100.3,44.7,141.4c21.4,26,48,45.2,78.7,58.9
		c20.1,8.9,41.4,15.1,63.1,18.3c20.5,3,41.3,3.7,62,2.1c16.9-1.3,33.7-3.9,50.1-7.8C300.3,538.6,301.4,538.1,302.2,537.3z"/>
	
		<linearGradient id="SVGID_3_" gradientUnits="userSpaceOnUse" x1="284.67" y1="134.095" x2="543.3517" y2="134.095" gradientTransform="matrix(1 0 0 -1 0 564)">
		<stop  offset="0" style="stop-color:#28ABC9"/>
		<stop  offset="1" style="stop-color:#00699B"/>
	</linearGradient>
	<path class="st2" d="M442.2,468.8c18.1-34.8,24.1-71,16.6-109.1c-4.2-21.8-13.2-42.3-26.2-60.2c-1.1,6.5-1.4,12.4-2,18.2
		c-3.3,32.3-7.2,64.6-16.9,95.8c-5.4,17.4-12.4,33.9-23.4,48.6c-13.5,18-31.1,29.6-53.2,34.2c-12.1,2.4-24.5,2.9-36.8,1.5
		c-5.1-0.5-10.1-1.2-15.7-1.9c1.3,1.3,2.9,2.3,4.6,3c18.5,9.9,37.8,18.3,56.8,27.2c2.5,1.2,5.1,1.3,7.8,1.4
		c17.8,0.6,35.2-1.8,52.5-5.2c14-2.7,28-5.8,42.2-7.1c24-2.1,45.8,3.4,65.4,17.8c9.8,7.3,18.7,15.6,26.7,24.8
		c0.8,0.9,1.3,2.1,2.7,2.5C543.7,517,500.5,468.2,442.2,468.8z"/>
</g>
</svg>
