<svg xmlns="http://www.w3.org/2000/svg" xmlns:xlink="http://www.w3.org/1999/xlink" viewBox="0 0 1920 1080"><defs><style>.a{fill:#fff;}.b{fill:url(#a);}.c{fill:url(#b);}.d{fill:url(#c);}</style><linearGradient id="a" x1="890.47" y1="183.97" x2="1053.12" y2="363.25" gradientUnits="userSpaceOnUse"><stop offset="0" stop-color="#28abc9"/><stop offset="1" stop-color="#00699b"/></linearGradient><linearGradient id="b" x1="743.56" y1="463.19" x2="984.3" y2="463.19" xlink:href="#a"/><linearGradient id="c" x1="970.35" y1="493.71" x2="1176.44" y2="493.71" xlink:href="#a"/></defs><path class="a" d="M201.33,889.75V735h18.12L321.79,862.12h-9.5V735h22.1V889.75H316.26L213.93,762.66h9.5V889.75Z"/><path class="a" d="M398.71,891.07q-13.05,0-22.88-4.42a35,35,0,0,1-15.14-12.26,31,31,0,0,1-5.3-17.8,33.51,33.51,0,0,1,4.53-17.24q4.53-7.73,14.81-12.37t27.74-4.65H439.6v15.26H403.35q-15.92,0-21.44,5.3a17.11,17.11,0,0,0-5.53,12.82,16.46,16.46,0,0,0,6.86,13.81q6.84,5.21,19,5.2a40.18,40.18,0,0,0,20.89-5.31,30.12,30.12,0,0,0,12.93-15.47l4.2,14.59A33,33,0,0,1,425.45,885Q414.85,891.08,398.71,891.07Zm38.46-1.32V865l-1.11-4.64V818.14q0-13.49-7.84-20.89t-23.54-7.41a62.14,62.14,0,0,0-20.34,3.43,52.56,52.56,0,0,0-16.8,9.17l-8.84-15.91a64.1,64.1,0,0,1,21.77-11.16,90.92,90.92,0,0,1,26.64-3.87q24.09,0,37.13,11.71t13,35.81v70.73Z"/><path class="a" d="M466.56,790.07V772.6h74.71v17.47Zm57,101q-17.69,0-27.41-9.5t-9.72-27.19V747h21.21V853.5q0,9.51,4.76,14.59T526,873.17q9.94,0,16.58-5.52l6.63,15.25a30.94,30.94,0,0,1-11.61,6.19A49.5,49.5,0,0,1,523.59,891.07Z"/><path class="a" d="M610.89,891.07q-15,0-26.41-5.52a39.57,39.57,0,0,1-17.68-16.91q-6.3-11.39-6.3-28.62V772.6h21.22v65q0,17.24,8.28,25.86t23.32,8.62a39,39,0,0,0,19.23-4.54,30.4,30.4,0,0,0,12.6-13.26q4.43-8.73,4.42-21.1V772.6h21.22V889.75H650.68V858.14l3.31,8.4a41,41,0,0,1-17.24,18.12A52.09,52.09,0,0,1,610.89,891.07Z"/><path class="a" d="M698,889.75V772.6h20.34v31.83l-2-8a35.94,35.94,0,0,1,16.36-18.56q11.49-6.4,28.29-6.41v20.55a16.46,16.46,0,0,0-2.54-.22H756.1q-17,0-27,10.17t-9.95,29.4v58.35Z"/><path class="a" d="M799.43,891.07q-13,0-22.88-4.42a35,35,0,0,1-15.14-12.26,31,31,0,0,1-5.31-17.8,33.42,33.42,0,0,1,4.54-17.24q4.51-7.73,14.8-12.37t27.74-4.65h37.14v15.26H804.07q-15.92,0-21.44,5.3a17.11,17.11,0,0,0-5.53,12.82A16.46,16.46,0,0,0,784,869.52q6.85,5.21,19,5.2a40.18,40.18,0,0,0,20.89-5.31,30.12,30.12,0,0,0,12.93-15.47l4.2,14.59A33,33,0,0,1,826.17,885Q815.57,891.08,799.43,891.07Zm38.45-1.32V865l-1.1-4.64V818.14q0-13.49-7.85-20.89t-23.54-7.41a62.13,62.13,0,0,0-20.33,3.43,52.56,52.56,0,0,0-16.8,9.17l-8.84-15.91a64.1,64.1,0,0,1,21.77-11.16,90.92,90.92,0,0,1,26.64-3.87q24.07,0,37.13,11.71T858,819v70.73Z"/><path class="a" d="M884.08,889.75v-164H905.3v164Z"/><path class="a" d="M958.34,889.75,1028.41,735h21.88l70.29,154.72h-23.21l-62.55-142.34h8.84L981.11,889.75Zm29.84-38.68,6-17.68h87.08l6.41,17.68Z"/><path class="a" d="M1189.76,771.5q14.35,0,25.31,5.52a39.77,39.77,0,0,1,17.13,16.8q6.18,11.28,6.18,28.51v67.42h-21.21v-65q0-17-8.29-25.64t-23.32-8.62a41.57,41.57,0,0,0-19.67,4.42A30.21,30.21,0,0,0,1153,808q-4.55,8.61-4.54,21.44v60.34h-21.21V772.6h20.33v31.61l-3.31-8.4a40.65,40.65,0,0,1,17.68-17.9Q1173.85,771.51,1189.76,771.5Z"/><path class="a" d="M1313.09,884.89q-17,0-30.39-7.19a54.73,54.73,0,0,1-21.22-20q-7.85-12.83-7.85-29.62,0-17,7.85-29.73a54.32,54.32,0,0,1,21.22-19.78q13.36-7.07,30.39-7.07a61.37,61.37,0,0,1,27.41,6.08,46.38,46.38,0,0,1,19.78,18.67q7.41,12.6,7.41,31.83,0,19-7.41,31.61a47.86,47.86,0,0,1-19.78,18.9A59.54,59.54,0,0,1,1313.09,884.89Zm2.65,49.06a108.5,108.5,0,0,1-31.27-4.53q-15.15-4.53-24.65-12.93L1270,900.14a60.34,60.34,0,0,0,20.11,11.16,76.69,76.69,0,0,0,25,4.09q20.78,0,30.5-9.73t9.73-29.62V851.29l2.21-23.21-1.11-23.43v-32h20.12V873.83q0,30.95-15.48,45.54T1315.74,934Zm-.22-67.63a43.29,43.29,0,0,0,20.78-4.86A36.45,36.45,0,0,0,1350.56,848a40.71,40.71,0,0,0,0-39.78,35.67,35.67,0,0,0-14.26-13.37,44.06,44.06,0,0,0-20.78-4.75,44.67,44.67,0,0,0-20.88,4.75,35.39,35.39,0,0,0-14.37,13.37,40.64,40.64,0,0,0,0,39.78,36.15,36.15,0,0,0,14.37,13.49A43.88,43.88,0,0,0,1315.52,866.32Z"/><path class="a" d="M1403.71,889.75v-164h21.22v164Z"/><path class="a" d="M1504.28,891.07q-18.79,0-33-7.73a55.77,55.77,0,0,1-22.1-21.22q-7.85-13.49-7.85-30.94t7.63-30.95a55.1,55.1,0,0,1,21-21.11,59.83,59.83,0,0,1,30.17-7.62q17,0,30.06,7.51a53.25,53.25,0,0,1,20.44,21.11q7.41,13.59,7.41,31.72c0,.88,0,1.92-.11,3.09s-.19,2.29-.34,3.32h-99.68V823h88.63l-8.62,5.3a39.37,39.37,0,0,0-4.64-20.11,35.54,35.54,0,0,0-13.37-13.82,41.63,41.63,0,0,0-39.45,0,35.05,35.05,0,0,0-13.49,13.93,42.15,42.15,0,0,0-4.86,20.44v3.54a40.21,40.21,0,0,0,5.42,20.89,37,37,0,0,0,15.14,14.25,47.33,47.33,0,0,0,22.32,5.09,48.8,48.8,0,0,0,18.9-3.54,41.33,41.33,0,0,0,14.92-10.61l11.71,13.71a51.25,51.25,0,0,1-19.78,14.14A68.91,68.91,0,0,1,1504.28,891.07Z"/><path class="a" d="M1574.12,889.75V772.6h20.34v31.83l-2-8a36,36,0,0,1,16.35-18.56q11.49-6.4,28.29-6.41v20.55a16.25,16.25,0,0,0-2.54-.22h-2.32q-17,0-27,10.17t-10,29.4v58.35Z"/><path class="a" d="M1684.86,891.07a95.31,95.31,0,0,1-27.74-4q-13.15-4-20.67-9.73l8.84-16.8a72.22,72.22,0,0,0,18.57,8.62,73.42,73.42,0,0,0,22.54,3.54q14.8,0,21.33-4.2a13.19,13.19,0,0,0,6.52-11.71,10.27,10.27,0,0,0-4-8.62,27.14,27.14,0,0,0-10.49-4.65q-6.52-1.54-14.48-2.76t-15.92-3.09a63,63,0,0,1-14.58-5.31,27.52,27.52,0,0,1-10.61-9.5q-4-6.07-4-16.25a30.06,30.06,0,0,1,6-18.56q6-8,16.9-12.27t26-4.31a102.29,102.29,0,0,1,23.32,2.76q11.84,2.78,19.34,7.85l-9.06,16.8a50,50,0,0,0-16.58-7.3,76.74,76.74,0,0,0-17.24-2q-13.92,0-20.77,4.53t-6.85,11.61q0,6,4.09,9.17a29.34,29.34,0,0,0,10.6,5,131.28,131.28,0,0,0,14.48,3q8,1.22,15.92,3.09a65,65,0,0,1,14.47,5.2,28.06,28.06,0,0,1,10.61,9.28q4.09,6,4.09,15.91a28.45,28.45,0,0,1-6.19,18.35q-6.18,7.74-17.46,12T1684.86,891.07Z"/><path class="b" d="M1154.07,193.68c-24.58-13.89-50.24-25.12-77.63-32.21a250,250,0,0,0-43.14-7.31c-45.8-3.64-88.66,6.15-128.89,28-29.32,15.93-54.73,36.84-77.52,61.06-23.59,25.08-43.51,52.88-61,82.44-.31.52-.93,1-.55,1.89a10.2,10.2,0,0,0,3.26-1.42A87.41,87.41,0,0,1,815,317.19c12.88,1,25.21,4.44,37.27,9,15.47,5.82,30.23,13.23,45.11,20.34,13.89,6.64,27.89,13,42.56,17.8a130.47,130.47,0,0,0,50.83,6.17c27.08-2,52.13-10.59,75.32-24.54,34.37-20.68,60.81-48.72,77.78-85.26a143.11,143.11,0,0,0,13.63-61.25A5.77,5.77,0,0,0,1154.07,193.68Z"/><path class="c" d="M984.3,579.31c-6.09-3.07-12-6-17.81-9-17.15-9-33.5-19.2-48.36-31.68-12.39-10.41-23.42-22-31.28-36.33-5.23-9.52-8.52-19.62-8.73-30.59a55.11,55.11,0,0,1,8.43-30.21c6.45-10.58,15.29-18.85,25.37-25.88,13.56-9.46,28.51-16.11,44.08-21.48.74-.26,1.48-.49,2.21-.77a5.42,5.42,0,0,0,.86-.65c-3.72-1.09-7.15-2.3-10.67-3.1-16.41-3.72-31.92-9.9-47.19-16.81s-29.85-14.63-45.13-21.2a171,171,0,0,0-32-10.64c-17-3.61-33.26-1.69-48.61,6.74-5.87,3.22-11.71,6.49-17.6,9.66a5.48,5.48,0,0,0-2.71,3.19A182,182,0,0,0,744,410.68c-3,42.24,8.76,79.87,35.61,112.63,17,20.75,38.23,36.05,62.67,47a193.3,193.3,0,0,0,50.31,14.54A223.72,223.72,0,0,0,942,586.52a258,258,0,0,0,40-6.18A3.72,3.72,0,0,0,984.3,579.31Z"/><path class="d" d="M1095.85,524.69c14.43-27.71,19.2-56.55,13.21-86.91a120.12,120.12,0,0,0-20.91-48c-.89,5.15-1.08,9.86-1.55,14.53-2.62,25.76-5.76,51.44-13.43,76.3-4.26,13.83-9.91,27-18.65,38.7-10.74,14.34-24.76,23.61-42.37,27.26a95.08,95.08,0,0,1-29.3,1.19c-4-.42-8.06-1-12.5-1.51a12.44,12.44,0,0,0,3.65,2.39c14.76,7.9,30.1,14.6,45.26,21.7a15.4,15.4,0,0,0,6.21,1.09c14.14.5,28-1.47,41.85-4.18,11.16-2.18,22.28-4.64,33.62-5.65,19.09-1.69,36.52,2.74,52.08,14.17a140.1,140.1,0,0,1,21.3,19.78c.65.73,1.06,1.71,2.12,2C1176.69,563.13,1142.31,524.19,1095.85,524.69Z"/></svg>