<svg xmlns="http://www.w3.org/2000/svg" xmlns:xlink="http://www.w3.org/1999/xlink" viewBox="0 0 407.6 162.32"><defs><style>.cls-1{fill:#0b313a;}.cls-2{fill:url(#linear-gradient);}.cls-3{fill:url(#linear-gradient-2);}.cls-4{fill:url(#linear-gradient-3);}</style><linearGradient id="linear-gradient" x1="50.64" y1="14.69" x2="106.7" y2="76.49" gradientUnits="userSpaceOnUse"><stop offset="0" stop-color="#28abc9"/><stop offset="1" stop-color="#00699b"/></linearGradient><linearGradient id="linear-gradient-2" x1="0" y1="110.94" x2="82.98" y2="110.94" xlink:href="#linear-gradient"/><linearGradient id="linear-gradient-3" x1="78.18" y1="121.46" x2="149.21" y2="121.46" xlink:href="#linear-gradient"/></defs><g id="Render"><path class="cls-1" d="M186.06,73.94V42.8h6L210.4,65.22h-2.89V42.8h7.11V73.94h-5.91L190.29,51.52h2.89V73.94Z"/><path class="cls-1" d="M217.92,73.94,231.79,42.8h7.12l13.93,31.14h-7.57L233.89,46.45h2.84L225.3,73.94Zm6.93-6.67,1.92-5.48h16l2,5.48Z"/><path class="cls-1" d="M261,73.94V48.67H251V42.8h27.14v5.87h-10V73.94Z"/><path class="cls-1" d="M295.32,74.47q-6.63,0-10.37-3.69t-3.73-10.54V42.8h7.2V60c0,3,.61,5.1,1.83,6.41a7.68,7.68,0,0,0,10.23,0c1.22-1.31,1.82-3.44,1.82-6.41V42.8h7.12V60.24q0,6.85-3.74,10.54T295.32,74.47Z"/><path class="cls-1" d="M316.54,73.94V42.8H330a17.39,17.39,0,0,1,7.2,1.36,10.46,10.46,0,0,1,4.67,3.89,10.85,10.85,0,0,1,1.65,6.05,10.64,10.64,0,0,1-1.65,6,10.38,10.38,0,0,1-4.67,3.85,17.73,17.73,0,0,1-7.2,1.33h-9.48l3.21-3.15V73.94Zm7.21-11-3.21-3.38h9.08a7.4,7.4,0,0,0,5-1.45,5.66,5.66,0,0,0,0-8,7.51,7.51,0,0,0-5-1.42h-9.08l3.21-3.42Zm12.58,11-7.78-11.3h7.7l7.87,11.3Z"/><path class="cls-1" d="M345.14,73.94,359,42.8h7.12l13.92,31.14H372.5L361.11,46.45H364L352.53,73.94Zm6.94-6.67L354,61.79h16l2,5.48Z"/><path class="cls-1" d="M383.31,73.94V42.8h7.21V68.07h15.61v5.87Z"/><path class="cls-1" d="M183,121.39l13.88-31.14H204l13.92,31.14h-7.56L198.94,93.9h2.85l-11.43,27.49Zm6.94-6.67,1.92-5.48h16l2,5.48Z"/><path class="cls-1" d="M221.14,121.39V90.25h6l18.37,22.42h-2.89V90.25h7.12v31.14h-5.92L225.37,99h2.89v22.42Z"/><path class="cls-1" d="M272.12,121.92a18.79,18.79,0,0,1-6.78-1.18,15.88,15.88,0,0,1-5.39-3.35,15.67,15.67,0,0,1-3.56-5.12,17.14,17.14,0,0,1,0-12.9A15.31,15.31,0,0,1,260,94.25a16.1,16.1,0,0,1,5.42-3.35,20.67,20.67,0,0,1,14.31.2,14.8,14.8,0,0,1,5.58,4l-4.63,4.27A11.34,11.34,0,0,0,277,96.72a10.84,10.84,0,0,0-4.36-.86,11.46,11.46,0,0,0-4.14.71,9.08,9.08,0,0,0-5.31,5.2,10.77,10.77,0,0,0-.74,4,10.59,10.59,0,0,0,.74,4,9.26,9.26,0,0,0,2.09,3.18,8.93,8.93,0,0,0,3.2,2.07,11.12,11.12,0,0,0,4.07.71,12.82,12.82,0,0,0,4.16-.68,12,12,0,0,0,3.94-2.34l4.09,5.2a18.7,18.7,0,0,1-5.89,2.94A23,23,0,0,1,272.12,121.92Zm6-4.89v-11.7h6.58V118Z"/><path class="cls-1" d="M291.38,121.39V90.25h7.21v25.27H314.2v5.87Z"/><path class="cls-1" d="M325.41,115.61h16.95v5.78H318.25V90.25h23.53V96H325.41Zm-.53-12.81h15v5.6h-15Z"/><path class="cls-1" d="M348.1,121.39V90.25h13.48a17.44,17.44,0,0,1,7.21,1.36,10.57,10.57,0,0,1,4.67,3.89,10.93,10.93,0,0,1,1.64,6,10.71,10.71,0,0,1-1.64,6,10.49,10.49,0,0,1-4.67,3.85,17.78,17.78,0,0,1-7.21,1.34H352.1l3.21-3.16v11.83Zm7.21-11L352.1,107h9.08a7.4,7.4,0,0,0,5-1.45,5.65,5.65,0,0,0,0-8,7.46,7.46,0,0,0-5-1.43H352.1l3.21-3.42Zm12.59,11-7.79-11.3h7.7l7.87,11.3Z"/><path class="cls-1" d="M391,121.92a25.28,25.28,0,0,1-7.16-1,16.49,16.49,0,0,1-5.52-2.6l2.45-5.43a17.85,17.85,0,0,0,4.73,2.34,17.38,17.38,0,0,0,5.54.91,11.61,11.61,0,0,0,3.45-.42,4.12,4.12,0,0,0,1.94-1.18,2.69,2.69,0,0,0,.62-1.74,2.36,2.36,0,0,0-1-2,8.16,8.16,0,0,0-2.58-1.2c-1.07-.31-2.25-.6-3.54-.89s-2.58-.63-3.87-1a16.5,16.5,0,0,1-3.53-1.6,8,8,0,0,1-2.61-2.58,7.71,7.71,0,0,1-1-4.1,8.64,8.64,0,0,1,1.45-4.87A9.78,9.78,0,0,1,384.78,91a17.76,17.76,0,0,1,7.32-1.31,24.5,24.5,0,0,1,5.78.69,17,17,0,0,1,5,2.06L400.68,98a19,19,0,0,0-4.36-1.85,16,16,0,0,0-4.27-.6,10,10,0,0,0-3.42.49,4.11,4.11,0,0,0-1.92,1.27,3,3,0,0,0-.58,1.8,2.3,2.3,0,0,0,1,1.93,7.64,7.64,0,0,0,2.58,1.18c1.07.3,2.25.6,3.54.89s2.58.64,3.87,1a15.33,15.33,0,0,1,3.54,1.56,7.91,7.91,0,0,1,2.6,2.58,7.51,7.51,0,0,1,1,4,8.39,8.39,0,0,1-1.47,4.8,10.23,10.23,0,0,1-4.38,3.52A17.71,17.71,0,0,1,391,121.92Z"/><path class="cls-2" d="M141.5,18a110.52,110.52,0,0,0-26.76-11.1A85.89,85.89,0,0,0,99.87,4.42a78.29,78.29,0,0,0-44.43,9.65,106.85,106.85,0,0,0-26.72,21,161,161,0,0,0-21,28.42c-.11.18-.32.34-.19.65a3.51,3.51,0,0,0,1.12-.49,30.25,30.25,0,0,1,16-3.09,46.41,46.41,0,0,1,12.85,3.1c5.33,2,10.42,4.56,15.55,7a121.3,121.3,0,0,0,14.66,6.13A45,45,0,0,0,85.21,79a58.29,58.29,0,0,0,26-8.46A66.49,66.49,0,0,0,138,41.13,49.33,49.33,0,0,0,142.68,20,2,2,0,0,0,141.5,18Z"/><path class="cls-3" d="M83,151c-2.1-1.06-4.13-2.06-6.14-3.11a92.33,92.33,0,0,1-16.66-10.92,44.5,44.5,0,0,1-10.79-12.52,22.65,22.65,0,0,1-3-10.55,19,19,0,0,1,2.91-10.41A30,30,0,0,1,58,94.54a61.36,61.36,0,0,1,15.2-7.41c.25-.08.51-.16.76-.26.07,0,.12-.08.3-.22-1.29-.38-2.47-.8-3.68-1.07a85.43,85.43,0,0,1-16.27-5.8c-5.22-2.36-10.29-5-15.55-7.3a58.86,58.86,0,0,0-11-3.67A23.48,23.48,0,0,0,11,71.13c-2,1.11-4,2.24-6.07,3.33A1.87,1.87,0,0,0,4,75.56,62.54,62.54,0,0,0,.15,92.84a53.25,53.25,0,0,0,12.28,38.82A58,58,0,0,0,34,147.85a66.91,66.91,0,0,0,17.34,5,77.06,77.06,0,0,0,17,.59,87.8,87.8,0,0,0,13.77-2.13A1.29,1.29,0,0,0,83,151Z"/><path class="cls-4" d="M121.44,132.14a44.52,44.52,0,0,0,4.55-30,41.43,41.43,0,0,0-7.21-16.53c-.31,1.77-.37,3.39-.54,5-.9,8.88-2,17.72-4.62,26.3a43.21,43.21,0,0,1-6.43,13.34,23.79,23.79,0,0,1-14.61,9.39,32.6,32.6,0,0,1-10.1.41c-1.39-.14-2.78-.33-4.3-.52a4.05,4.05,0,0,0,1.25.82c5.09,2.73,10.38,5,15.6,7.48a5.26,5.26,0,0,0,2.14.38,63.56,63.56,0,0,0,14.43-1.44,113.93,113.93,0,0,1,11.59-1.95,25.52,25.52,0,0,1,17.95,4.89,47.91,47.91,0,0,1,7.34,6.82c.23.24.37.58.73.7C149.3,145.39,137.45,132,121.44,132.14Z"/></g></svg>