<svg xmlns="http://www.w3.org/2000/svg" xmlns:xlink="http://www.w3.org/1999/xlink" viewBox="0 0 549.63 561.19"><defs><style>.a{fill:url(#a);}.b{fill:url(#b);}.c{fill:url(#c);}</style><linearGradient id="a" x1="184.4" y1="41.12" x2="388.55" y2="266.15" gradientUnits="userSpaceOnUse"><stop offset="0" stop-color="#fff"/><stop offset="0.38" stop-color="#fdfeff"/><stop offset="0.58" stop-color="#f5fcff"/><stop offset="0.74" stop-color="#e8f7ff"/><stop offset="0.87" stop-color="#d5f1fe"/><stop offset="0.99" stop-color="#bde8fe"/><stop offset="1" stop-color="#b9e7fe"/></linearGradient><linearGradient id="b" x1="0" y1="391.59" x2="302.17" y2="391.59" xlink:href="#a"/><linearGradient id="c" x1="284.67" y1="429.9" x2="543.35" y2="429.9" xlink:href="#a"/></defs><path class="a" d="M515.27,53.3c-30.85-17.43-63.06-31.53-97.44-40.43a315.05,315.05,0,0,0-54.15-9.18C306.19-.86,252.4,11.42,201.89,38.86c-36.79,20-68.68,46.24-97.29,76.64C75,147,50,181.87,28,219c-.38.65-1.16,1.25-.69,2.37,1.53-.19,2.77-1.12,4.09-1.78a109.72,109.72,0,0,1,58.26-11.24c16.17,1.23,31.65,5.58,46.78,11.26,19.42,7.3,37.94,16.61,56.63,25.54,17.43,8.33,35,16.32,53.41,22.34a163.87,163.87,0,0,0,63.8,7.74c34-2.54,65.44-13.29,94.54-30.81,43.14-26,76.33-61.14,97.64-107a179.76,179.76,0,0,0,17.1-76.88C519.54,57,518.36,55.05,515.27,53.3Z"/><path class="b" d="M302.17,537.35c-7.64-3.86-15.05-7.48-22.35-11.31-21.52-11.28-42-24.11-60.69-39.77-15.56-13.07-29.4-27.64-39.27-45.6-6.57-12-10.7-24.63-11-38.4a69.28,69.28,0,0,1,10.58-37.92c8.09-13.28,19.2-23.66,31.84-32.48,17-11.87,35.8-20.22,55.33-27,.93-.32,1.87-.61,2.78-.95a7.59,7.59,0,0,0,1.08-.82c-4.67-1.37-9-2.89-13.39-3.89-20.6-4.67-40.07-12.44-59.23-21.11-19-8.6-37.47-18.36-56.65-26.6-13-5.59-26.26-10.41-40.18-13.36-21.39-4.54-41.75-2.12-61,8.45-7.37,4-14.7,8.16-22.1,12.13a6.89,6.89,0,0,0-3.39,4C7.08,283.11,2.08,304,.56,325.68c-3.72,53,11,100.26,44.71,141.38,21.35,26,48,45.24,78.66,58.93a242.34,242.34,0,0,0,63.14,18.26,280.39,280.39,0,0,0,62,2.14,322.79,322.79,0,0,0,50.15-7.75A4.72,4.72,0,0,0,302.17,537.35Z"/><path class="c" d="M442.2,468.78c18.1-34.78,24.09-71,16.57-109.08a150.88,150.88,0,0,0-26.24-60.22c-1.12,6.47-1.36,12.38-1.95,18.24-3.29,32.34-7.23,64.57-16.85,95.78-5.36,17.36-12.44,33.92-23.42,48.57-13.48,18-31.07,29.64-53.17,34.21a118.92,118.92,0,0,1-36.79,1.5c-5.06-.53-10.12-1.21-15.68-1.89a15.22,15.22,0,0,0,4.58,3c18.53,9.92,37.79,18.33,56.8,27.24,2.5,1.17,5.14,1.28,7.8,1.37,17.75.63,35.18-1.85,52.53-5.24,14-2.74,28-5.83,42.21-7.09,24-2.13,45.84,3.44,65.36,17.78a175.24,175.24,0,0,1,26.74,24.83c.81.91,1.33,2.14,2.66,2.55C543.67,517,500.51,468.16,442.2,468.78Z"/></svg>