<svg xmlns="http://www.w3.org/2000/svg" xmlns:xlink="http://www.w3.org/1999/xlink" viewBox="0 0 407.6 162.32"><defs><style>.cls-1{fill:#fff;}.cls-2{fill:url(#linear-gradient);}.cls-3{fill:url(#linear-gradient-2);}.cls-4{fill:url(#linear-gradient-3);}</style><linearGradient id="linear-gradient" x1="50.64" y1="14.65" x2="106.7" y2="76.45" gradientUnits="userSpaceOnUse"><stop offset="0" stop-color="#fff"/><stop offset="0.38" stop-color="#fdfeff"/><stop offset="0.58" stop-color="#f5fcff"/><stop offset="0.74" stop-color="#e8f7ff"/><stop offset="0.87" stop-color="#d5f1fe"/><stop offset="0.99" stop-color="#bde8fe"/><stop offset="1" stop-color="#b9e7fe"/></linearGradient><linearGradient id="linear-gradient-2" x1="0" y1="110.89" x2="82.98" y2="110.89" xlink:href="#linear-gradient"/><linearGradient id="linear-gradient-3" x1="78.18" y1="121.41" x2="149.21" y2="121.41" xlink:href="#linear-gradient"/></defs><g id="Render"><path class="cls-1" d="M186.07,73.94V42.8h6L210.4,65.22h-2.89V42.8h7.11V73.94h-5.91L190.29,51.52h2.89V73.94Z"/><path class="cls-1" d="M217.92,73.94,231.8,42.8h7.11l13.93,31.14h-7.56L233.89,46.45h2.84L225.3,73.94Zm6.94-6.67,1.91-5.47h16l2,5.47Z"/><path class="cls-1" d="M261,73.94V48.67H251V42.8h27.14v5.87h-10V73.94Z"/><path class="cls-1" d="M295.32,74.47q-6.63,0-10.36-3.69t-3.74-10.54V42.8h7.21V60c0,3,.6,5.1,1.82,6.41a7.65,7.65,0,0,0,10.23,0c1.22-1.31,1.83-3.44,1.83-6.41V42.8h7.11V60.24q0,6.85-3.73,10.54T295.32,74.47Z"/><path class="cls-1" d="M316.54,73.94V42.8H330a17.44,17.44,0,0,1,7.21,1.36,10.57,10.57,0,0,1,4.67,3.89,10.93,10.93,0,0,1,1.64,6.05,10.71,10.71,0,0,1-1.64,6,10.49,10.49,0,0,1-4.67,3.85A17.78,17.78,0,0,1,330,65.27h-9.48l3.21-3.16V73.94Zm7.21-11-3.21-3.38h9.08a7.35,7.35,0,0,0,5-1.45,5.65,5.65,0,0,0,0-8,7.46,7.46,0,0,0-5-1.43h-9.08l3.21-3.42Zm12.59,11-7.79-11.3h7.7l7.87,11.3Z"/><path class="cls-1" d="M345.14,73.94,359,42.8h7.12l13.92,31.14H372.5L361.11,46.45H364L352.53,73.94Zm6.94-6.67L354,61.8h16l2,5.47Z"/><path class="cls-1" d="M383.31,73.94V42.8h7.21V68.07h15.61v5.87Z"/><path class="cls-1" d="M183,121.39l13.88-31.14H204l13.92,31.14h-7.56L198.94,93.9h2.85l-11.43,27.49Zm6.94-6.67,1.92-5.47h16l2,5.47Z"/><path class="cls-1" d="M221.14,121.39V90.25h6l18.38,22.42h-2.9V90.25h7.12v31.14h-5.91L225.37,99h2.89v22.42Z"/><path class="cls-1" d="M272.12,121.93a19,19,0,0,1-6.78-1.18,16,16,0,0,1-5.38-3.36,15.27,15.27,0,0,1-3.56-5.12,17,17,0,0,1,0-12.9A15.15,15.15,0,0,1,260,94.26a16,16,0,0,1,5.42-3.36,20.67,20.67,0,0,1,14.31.2,14.72,14.72,0,0,1,5.58,4l-4.63,4.27A11.28,11.28,0,0,0,277,96.72a11,11,0,0,0-4.36-.86,11.46,11.46,0,0,0-4.14.71,9.08,9.08,0,0,0-5.31,5.2,10.77,10.77,0,0,0-.74,4,10.55,10.55,0,0,0,.74,4,9.4,9.4,0,0,0,2.09,3.19,9,9,0,0,0,3.2,2.06,11.12,11.12,0,0,0,4.07.72,12.78,12.78,0,0,0,4.16-.69,12,12,0,0,0,3.94-2.34l4.09,5.21a18.79,18.79,0,0,1-5.89,2.93A23,23,0,0,1,272.12,121.93Zm6-4.9v-11.7h6.58V118Z"/><path class="cls-1" d="M291.38,121.39V90.25h7.21v25.27h15.62v5.87Z"/><path class="cls-1" d="M325.42,115.61h16.94v5.78H318.25V90.25h23.54V96H325.42Zm-.54-12.81h15v5.6h-15Z"/><path class="cls-1" d="M348.1,121.39V90.25h13.48a17.44,17.44,0,0,1,7.21,1.36,10.57,10.57,0,0,1,4.67,3.89,10.85,10.85,0,0,1,1.64,6,10.63,10.63,0,0,1-1.64,6,10.49,10.49,0,0,1-4.67,3.85,17.78,17.78,0,0,1-7.21,1.34h-9.47l3.2-3.16v11.83Zm7.21-11-3.2-3.38h9.07a7.33,7.33,0,0,0,5-1.45,5.65,5.65,0,0,0,0-8,7.44,7.44,0,0,0-5-1.43h-9.07l3.2-3.42Zm12.59,11-7.79-11.3h7.7l7.87,11.3Z"/><path class="cls-1" d="M391,121.93a25.28,25.28,0,0,1-7.16-1,16.49,16.49,0,0,1-5.52-2.6l2.45-5.42a18.06,18.06,0,0,0,4.74,2.33,17.32,17.32,0,0,0,5.53.91,11.57,11.57,0,0,0,3.45-.42,4,4,0,0,0,1.94-1.18,2.66,2.66,0,0,0,.62-1.73,2.36,2.36,0,0,0-1-2,7.94,7.94,0,0,0-2.58-1.2c-1.07-.32-2.25-.61-3.54-.9a39.61,39.61,0,0,1-3.87-1,16,16,0,0,1-3.53-1.6,7.73,7.73,0,0,1-2.6-2.58,7.58,7.58,0,0,1-1-4.09,8.75,8.75,0,0,1,1.45-4.88A9.9,9.9,0,0,1,384.78,91a17.92,17.92,0,0,1,7.32-1.31,24.5,24.5,0,0,1,5.78.69,16.73,16.73,0,0,1,5,2.07L400.68,98a18.77,18.77,0,0,0-4.36-1.85,16,16,0,0,0-4.27-.6,10,10,0,0,0-3.42.49,4.11,4.11,0,0,0-1.92,1.27,3,3,0,0,0-.57,1.8,2.28,2.28,0,0,0,1,1.93,7.73,7.73,0,0,0,2.58,1.18c1.07.3,2.25.6,3.54.89s2.58.64,3.87,1a14.89,14.89,0,0,1,3.54,1.55,8,8,0,0,1,2.6,2.58,7.51,7.51,0,0,1,1,4,8.44,8.44,0,0,1-1.47,4.81,10.29,10.29,0,0,1-4.38,3.51A17.7,17.7,0,0,1,391,121.93Z"/><path class="cls-2" d="M141.5,18a111.32,111.32,0,0,0-26.76-11.1A86.85,86.85,0,0,0,99.87,4.37,78.3,78.3,0,0,0,55.44,14a106.85,106.85,0,0,0-26.72,21,160.54,160.54,0,0,0-21,28.41c-.11.18-.32.35-.19.65a3.3,3.3,0,0,0,1.12-.49,30.15,30.15,0,0,1,16-3.08,46.75,46.75,0,0,1,12.85,3.09c5.33,2,10.42,4.56,15.55,7a123,123,0,0,0,14.66,6.14,45.34,45.34,0,0,0,17.53,2.13,58.31,58.31,0,0,0,26-8.47A66.47,66.47,0,0,0,138,41.09,49.37,49.37,0,0,0,142.68,20,2,2,0,0,0,141.5,18Z"/><path class="cls-3" d="M83,150.92c-2.1-1.06-4.13-2-6.14-3.1a91.85,91.85,0,0,1-16.66-10.93,44.36,44.36,0,0,1-10.79-12.52,22.58,22.58,0,0,1-3-10.54,19,19,0,0,1,2.91-10.42A30.21,30.21,0,0,1,58,94.49a61,61,0,0,1,15.2-7.4l.76-.26a2.12,2.12,0,0,0,.3-.23c-1.29-.38-2.47-.79-3.68-1.07a85.4,85.4,0,0,1-16.27-5.79c-5.22-2.36-10.29-5-15.55-7.31a59.59,59.59,0,0,0-11-3.67A23.58,23.58,0,0,0,11,71.08c-2,1.11-4,2.24-6.07,3.33A1.9,1.9,0,0,0,4,75.51,62.53,62.53,0,0,0,.15,92.8a53.25,53.25,0,0,0,12.28,38.82A58,58,0,0,0,34,147.8a66.54,66.54,0,0,0,17.34,5,77.06,77.06,0,0,0,17,.59,90.21,90.21,0,0,0,13.77-2.13A1.25,1.25,0,0,0,83,150.92Z"/><path class="cls-4" d="M121.44,132.09A44.49,44.49,0,0,0,126,102.14a41.53,41.53,0,0,0-7.21-16.54c-.31,1.78-.37,3.4-.54,5-.9,8.88-2,17.73-4.62,26.3a43,43,0,0,1-6.43,13.34,23.75,23.75,0,0,1-14.61,9.39,32.6,32.6,0,0,1-10.1.42c-1.39-.15-2.78-.34-4.3-.52a4.25,4.25,0,0,0,1.25.82c5.09,2.72,10.38,5,15.6,7.48a5.44,5.44,0,0,0,2.14.38,63.56,63.56,0,0,0,14.43-1.44,111.22,111.22,0,0,1,11.59-1.95,25.46,25.46,0,0,1,17.95,4.88,48.42,48.42,0,0,1,7.34,6.82c.23.25.37.59.73.7C149.3,145.34,137.45,131.92,121.44,132.09Z"/></g></svg>