<svg xmlns="http://www.w3.org/2000/svg" viewBox="0 0 1956.86 261.14"><defs><style>.a{fill:#fff;}</style></defs><path class="a" d="M26.89,205.69v-194H49.62L178,171H166.05V11.64h27.72V205.69H171L42.69,46.29H54.61v159.4Z"/><path class="a" d="M274.44,207.36q-16.35,0-28.69-5.55t-19-15.38a39,39,0,0,1-6.65-22.32,42,42,0,0,1,5.68-21.62q5.69-9.7,18.58-15.53t34.79-5.82h46.57v19.13H280.27q-20,0-26.9,6.65A21.49,21.49,0,0,0,246.44,163a20.67,20.67,0,0,0,8.6,17.33q8.59,6.51,23.84,6.51,15,0,26.2-6.65a37.8,37.8,0,0,0,16.21-19.4l5.27,18.29q-5.26,13-18.57,20.65T274.44,207.36Zm48.24-1.67v-31l-1.39-5.83V115.88q0-16.92-9.84-26.2t-29.52-9.29a77.59,77.59,0,0,0-25.5,4.3,65.77,65.77,0,0,0-21.07,11.5l-11.09-20a80.26,80.26,0,0,1,27.3-14A114.3,114.3,0,0,1,285,57.38q30.21,0,46.57,14.69T347.91,117v88.71Z"/><path class="a" d="M359.55,80.67V58.77h93.7v21.9Zm71.52,126.69q-22.18,0-34.38-11.92t-12.19-34.1V26.61h26.61V160.23q0,11.93,6,18.3t17.05,6.37q12.48,0,20.79-6.93l8.32,19.13a38.69,38.69,0,0,1-14.56,7.76A61.63,61.63,0,0,1,431.07,207.36Z"/><path class="a" d="M540.57,207.36q-18.86,0-33.13-6.93a49.6,49.6,0,0,1-22.17-21.21q-7.9-14.28-7.91-35.9V58.77H504v81.5q0,21.63,10.39,32.44t29.25,10.81q13.86,0,24.12-5.69a38.24,38.24,0,0,0,15.8-16.63q5.54-10.95,5.54-26.47v-76H615.7V205.69H590.47V166.05l4.16,10.54A51.47,51.47,0,0,1,573,199.32,65.43,65.43,0,0,1,540.57,207.36Z"/><path class="a" d="M649.79,205.69V58.77h25.5V98.69l-2.49-10a45.13,45.13,0,0,1,20.51-23.29q14.41-8,35.49-8V83.16a20,20,0,0,0-3.19-.27H722.7q-21.35,0-33.82,12.75T676.4,132.51v73.18Z"/><path class="a" d="M777,207.36q-16.35,0-28.69-5.55t-19-15.38a39,39,0,0,1-6.65-22.32,42,42,0,0,1,5.68-21.62q5.68-9.7,18.58-15.53t34.79-5.82h46.57v19.13H782.86q-20,0-26.89,6.65A21.49,21.49,0,0,0,749,163a20.66,20.66,0,0,0,8.59,17.33q8.58,6.51,23.84,6.51,15,0,26.2-6.65a37.8,37.8,0,0,0,16.21-19.4l5.27,18.29q-5.26,13-18.57,20.65T777,207.36Zm48.24-1.67v-31l-1.39-5.83V115.88q0-16.92-9.84-26.2t-29.52-9.29a77.59,77.59,0,0,0-25.5,4.3A65.77,65.77,0,0,0,738,96.19l-11.09-20a80.26,80.26,0,0,1,27.3-14,114.3,114.3,0,0,1,33.41-4.85q30.21,0,46.57,14.69T850.5,117v88.71Z"/><path class="a" d="M883.21,205.69V0h26.61V205.69Z"/><path class="a" d="M976.35,205.69l87.88-194h27.44l88.16,194.05h-29.11L1072.27,27.17h11.09L1004.9,205.69Zm37.42-48.51,7.49-22.18h109.23l8,22.18Z"/><path class="a" d="M1266.6,57.38q18,0,31.74,6.93a49.72,49.72,0,0,1,21.48,21.07q7.77,14.15,7.77,35.76v84.55H1301v-81.5q0-21.34-10.39-32.16t-29.25-10.81q-14.13,0-24.67,5.55a38,38,0,0,0-16.22,16.35q-5.68,10.81-5.68,26.89v75.68h-26.62V58.77h25.51V98.41l-4.16-10.53a51,51,0,0,1,22.18-22.46Q1246.64,57.38,1266.6,57.38Z"/><path class="a" d="M1421.29,199.6q-21.36,0-38.12-9a68.76,68.76,0,0,1-26.61-25.09q-9.86-16.08-9.84-37.15,0-21.34,9.84-37.29a68.14,68.14,0,0,1,26.61-24.81q16.77-8.86,38.12-8.87A76.82,76.82,0,0,1,1455.66,65a58.17,58.17,0,0,1,24.81,23.42q9.29,15.81,9.29,39.92,0,23.85-9.29,39.64a59.89,59.89,0,0,1-24.81,23.7A74.65,74.65,0,0,1,1421.29,199.6Zm3.32,61.54a136.29,136.29,0,0,1-39.22-5.68q-19-5.69-30.91-16.22l12.75-20.52a75.39,75.39,0,0,0,25.23,14,95.94,95.94,0,0,0,31.32,5.13q26.06,0,38.26-12.2t12.2-37.14v-31l2.77-29.11L1475.62,99V58.77h25.23v127q0,38.82-19.41,57.11T1424.61,261.14Zm-.27-84.83q14.69,0,26.06-6.1a45.69,45.69,0,0,0,17.88-16.91,47.41,47.41,0,0,0,6.51-25,47.44,47.44,0,0,0-6.51-24.95,44.72,44.72,0,0,0-17.88-16.77,55.35,55.35,0,0,0-26.06-6,56.16,56.16,0,0,0-26.2,6,44.4,44.4,0,0,0-18,16.77,47.44,47.44,0,0,0-6.52,24.95,47.42,47.42,0,0,0,6.52,25,45.34,45.34,0,0,0,18,16.91A55,55,0,0,0,1424.34,176.31Z"/><path class="a" d="M1534.94,205.69V0h26.62V205.69Z"/><path class="a" d="M1661.08,207.36q-23.57,0-41.45-9.7A69.89,69.89,0,0,1,1591.91,171q-9.84-16.9-9.84-38.81t9.56-38.81A69,69,0,0,1,1618,67q16.77-9.57,37.84-9.57,21.35,0,37.7,9.43a66.73,66.73,0,0,1,25.64,26.47q9.28,17.06,9.29,39.78c0,1.11,0,2.41-.14,3.88s-.23,2.87-.41,4.16h-125V122H1714l-10.81,6.66a49.3,49.3,0,0,0-5.82-25.23,44.51,44.51,0,0,0-16.77-17.33q-10.68-6.22-24.81-6.23a48.55,48.55,0,0,0-24.67,6.23,43.89,43.89,0,0,0-16.91,17.47,52.79,52.79,0,0,0-6.1,25.64v4.44a50.46,50.46,0,0,0,6.79,26.19,46.56,46.56,0,0,0,19,17.89q12.19,6.38,28,6.37a61.35,61.35,0,0,0,23.7-4.43,51.93,51.93,0,0,0,18.71-13.31l14.7,17.19a64.37,64.37,0,0,1-24.82,17.74A86.24,86.24,0,0,1,1661.08,207.36Z"/><path class="a" d="M1748.68,205.69V58.77h25.5V98.69l-2.49-10a45.13,45.13,0,0,1,20.51-23.29q14.41-8,35.48-8V83.16a19.79,19.79,0,0,0-3.18-.27h-2.91q-21.36,0-33.82,12.75t-12.48,36.87v73.18Z"/><path class="a" d="M1887.56,207.36a119.78,119.78,0,0,1-34.79-5q-16.5-5-25.92-12.2l11.09-21.07a90.56,90.56,0,0,0,23.29,10.81,92.11,92.11,0,0,0,28.27,4.44q18.57,0,26.76-5.27t8.17-14.69a12.91,12.91,0,0,0-5-10.81,33.86,33.86,0,0,0-13.16-5.82q-8.19-1.94-18.16-3.47t-20-3.88a79.83,79.83,0,0,1-18.3-6.65,34.58,34.58,0,0,1-13.3-11.92q-5-7.64-5-20.38a37.76,37.76,0,0,1,7.48-23.29q7.48-10,21.21-15.38t32.57-5.41a128.31,128.31,0,0,1,29.25,3.47q14.82,3.46,24.25,9.84L1935,91.76a62.67,62.67,0,0,0-20.79-9.15,96.14,96.14,0,0,0-21.63-2.5q-17.46,0-26,5.69t-8.6,14.55q0,7.49,5.13,11.51a36.92,36.92,0,0,0,13.31,6.23,164.48,164.48,0,0,0,18.15,3.75q10,1.51,20,3.88a80.89,80.89,0,0,1,18.16,6.51,35.22,35.22,0,0,1,13.31,11.64q5.13,7.49,5.13,20a35.66,35.66,0,0,1-7.77,23q-7.76,9.71-21.9,15.11T1887.56,207.36Z"/></svg>